# xmcd
# 
# Track frame offsets:
#     150
#     16458
#     33978
#     51255
#     64816
#     84236
#     105749
#     122769
#     140596
#     166098
#     192278
# 
# Disc length: 2794
# 
# Revision: 2
# Processed by: cddbd v1.5.2PL0 Copyright (c) Steve Scherf et al.
# Submitted via: fre:ac v1.0.27
# 
DISCID=8f0ae80b
DTITLE=Hughes - Thrall - Hughes - Thrall
DYEAR=1982
DGENRE=Rock
TTITLE0=I Got Your Number
TTITLE1=The Look In Your Eye
TTITLE2=Beg, Borrow Or Steel
TTITLE3=Where Did The Time Go
TTITLE4=Muscle And Blood
TTITLE5=Hold Out Your Life
TTITLE6=Who Will You Run To
TTITLE7=Coast To Coast
TTITLE8=First Step Of Love
TTITLE9=Love Don't Come Easy
TTITLE10=Still The Night
EXTD=
EXTT0=
EXTT1=
EXTT2=
EXTT3=
EXTT4=
EXTT5=
EXTT6=
EXTT7=
EXTT8=
EXTT9=
EXTT10=
PLAYORDER=
